<svg xmlns="http://www.w3.org/2000/svg" viewBox="0 0 48 32" role="img" aria-label="United States">
  <rect width="48" height="32" rx="2" fill="#fff"/>
  <path stroke="#b22234" stroke-width="2.46" d="M0 1.23h48M0 6.15h48M0 11.08h48M0 16h48M0 20.92h48M0 25.85h48M0 30.77h48"/>
  <rect width="20.5" height="17.23" rx="1" fill="#3c3b6e"/>
  <g fill="#fff">
    <circle cx="3" cy="3" r="1"/><circle cx="7" cy="3" r="1"/><circle cx="11" cy="3" r="1"/><circle cx="15" cy="3" r="1"/>
    <circle cx="5" cy="7" r="1"/><circle cx="9" cy="7" r="1"/><circle cx="13" cy="7" r="1"/><circle cx="17" cy="7" r="1"/>
    <circle cx="3" cy="11" r="1"/><circle cx="7" cy="11" r="1"/><circle cx="11" cy="11" r="1"/><circle cx="15" cy="11" r="1"/>
    <circle cx="5" cy="15" r="1"/><circle cx="9" cy="15" r="1"/><circle cx="13" cy="15" r="1"/><circle cx="17" cy="15" r="1"/>
  </g>
</svg>
